<?xml version="1.0" encoding="utf-8"?>
<!-- Generator: Adobe Illustrator 17.0.0, SVG Export Plug-In . SVG Version: 6.00 Build 0)  -->
<!DOCTYPE svg PUBLIC "-//W3C//DTD SVG 1.1//EN" "http://www.w3.org/Graphics/SVG/1.1/DTD/svg11.dtd">
<svg version="1.1" id="Layer_1" xmlns="http://www.w3.org/2000/svg" xmlns:xlink="http://www.w3.org/1999/xlink" x="0px" y="0px"
	 width="360px" height="360px" viewBox="-41.11 65.187 360 360" enable-background="new -41.11 65.187 360 360"
	 xml:space="preserve">
<rect x="-176.919" y="47.325" fill="#FFFFFF" width="501.346" height="385.578"/>
<polygon fill="#231F20" points="25.54,178.678 4.46,178.678 4.46,110.324 -14.961,110.324 -14.961,92.122 44.961,92.122 
	44.961,110.324 25.54,110.324 "/>
<polygon fill="#231F20" points="119.42,92.123 119.42,178.679 98.336,178.679 98.336,143.615 77.253,143.615 77.253,178.679 
	56.173,178.679 56.173,92.123 77.253,92.123 77.253,125.413 98.336,125.413 98.336,92.123 "/>
<rect x="135.069" y="92.123" fill="#231F20" width="21.083" height="86.556"/>
<path fill="#231F20" d="M170.139,118.424v-1.222c0-16.088,10.763-26.633,31.625-26.633c21.86,0,31.622,9.322,31.622,30.296v2.329
	h-21.08c0-9.762-2.775-14.423-10.542-14.423h-1.11c-6.105,0-9.101,3.436-9.101,7.876v0.446c0,5.325,1.777,7.988,13.426,9.541
	c18.866,2.554,28.965,8.546,28.965,25.523v1.219c0,16.98-10.987,26.854-32.18,26.854c-21.086,0-32.18-8.764-32.18-30.515v-1.001
	h21.083c0,9.544,3.33,13.32,10.539,13.32h1.113c7.212,0,10.208-3.888,10.208-8.103v-0.443c0-4.992-2.329-7.988-13.981-9.544
	C179.682,141.391,170.139,135.401,170.139,118.424"/>
<polygon fill="#231F20" points="36.082,222.003 25.207,284.364 -1.535,284.364 -15.294,197.811 6.677,197.811 13.334,255.293 
	23.099,197.811 49.065,197.811 58.827,255.293 65.487,197.811 87.459,197.811 73.7,284.364 46.845,284.364 "/>
<path fill="#231F20" d="M116.94,248.632h10.654l-5.325-26.409L116.94,248.632z M136.692,197.811l20.64,86.556h-22.527l-3.551-17.532
	H113.28l-3.442,17.532H87.205l20.637-86.556H136.692z"/>
<polygon fill="#231F20" points="194.357,284.365 173.274,284.365 173.274,257.735 148.751,197.809 171.83,197.809 183.815,231.769 
	195.797,197.809 218.879,197.809 194.357,257.735 "/>
<path fill="#231F20" d="M-11.633,362.531v-59.034H9.45v58.479c0,6.881,1.886,11.43,11.097,11.43c9.21,0,11.097-4.549,11.097-11.43
	v-58.479h21.083v59.034c0,18.199-7.103,29.074-32.18,29.074S-11.633,380.73-11.633,362.531"/>
<path fill="#231F20" d="M98.005,342.115c4.106,0,8.989-1.553,8.989-9.768v-0.883c0-8.216-4.883-9.768-8.989-9.768h-9.653v20.419
	H98.005z M88.352,390.05H67.268v-86.553h29.851c14.645,0,31.182,3.33,31.182,27.3v2.22c0,23.964-16.537,27.294-31.182,27.294h-8.767
	V390.05z"/>
</svg>
