<?xml version="1.0" encoding="utf-8"?><!DOCTYPE svg PUBLIC "-//W3C//DTD SVG 1.1//EN" "http://www.w3.org/Graphics/SVG/1.1/DTD/svg11.dtd"><svg xmlns="http://www.w3.org/2000/svg" xmlns:xlink="http://www.w3.org/1999/xlink"><symbol viewBox="18.89 125.187 300 300" enable-background="new 18.89 125.187 300 300" id="arrow_1"><path d="M245.845 270.812l-10.015-10.924c-.618-.675-1.482-1.076-2.394-1.115-.915-.04-1.81.285-2.482.903l-10.926 10.015c-.74.682-1.12 1.613-1.12 2.547 0 .832.303 1.667.91 2.33 1.286 1.403 3.47 1.5 4.874.212l4.493-4.12c-.717 34.89-29.302 63.057-64.36 63.057-35.507 0-64.395-28.886-64.395-64.394s28.888-64.393 64.395-64.393c15.443 0 30.378 5.55 42.053 15.628 1.442 1.245 3.62 1.086 4.867-.356 1.246-1.445 1.087-3.622-.357-4.867-12.93-11.16-29.465-17.306-46.563-17.306-39.31 0-71.295 31.98-71.295 71.293s31.984 71.294 71.295 71.294c38.953 0 70.695-31.407 71.27-70.23l4.663 5.087c1.287 1.407 3.47 1.5 4.875.213 1.403-1.286 1.498-3.47.212-4.875z"/></symbol><symbol viewBox="18.89 125.187 300 300" enable-background="new 18.89 125.187 300 300" id="arrow_10"><path d="M210.3 229.396c-21.384-21.95-56.638-22.41-78.587-1.025-13.114 12.778-20.47 29.897-20.708 48.207-.004.306-.005.61-.005.917 0 17.968 6.885 34.915 19.45 47.81 1.42 1.46 3.75 1.488 5.207.068 1.457-1.42 1.487-3.753.068-5.21-11.402-11.704-17.593-27.166-17.353-43.49.212-16.34 6.776-31.62 18.482-43.024 19.04-18.55 49.62-18.15 68.17.89 14.555 14.94 14.242 38.938-.698 53.494-11.054 10.77-28.457 11.102-39.917 1.176l7.54-2.043c1.963-.533 3.124-2.558 2.59-4.52-.53-1.965-2.553-3.125-4.516-2.592l-15.273 4.137c-.943.255-1.745.874-2.23 1.723-.324.56-.49 1.193-.49 1.832 0 .323.042.646.13.963l4.135 15.27c.532 1.964 2.555 3.126 4.52 2.593 1.962-.53 3.122-2.555 2.59-4.516l-1.462-5.398c14.265 10.445 34.45 9.39 47.524-3.35 17.85-17.387 18.224-46.06.834-63.91z"/></symbol><symbol viewBox="18.89 125.187 300 300" enable-background="new 18.89 125.187 300 300" id="arrow_2"><path d="M151.443 222.3l5.643-3.48c1.732-1.067 2.27-3.334 1.202-5.068-1.068-1.732-3.337-2.27-5.07-1.203l-13.468 8.302c-.83.515-1.426 1.336-1.65 2.286-.067.282-.1.566-.1.85 0 .678.187 1.348.547 1.932l.13.21c.19.68.56 1.276 1.07 1.736l7.105 11.524c1.067 1.732 3.336 2.27 5.068 1.2 1.732-1.067 2.27-3.335 1.203-5.068l-3.77-6.115c21.207 3.43 37.454 21.86 37.454 44.02 0 24.59-20.006 44.597-44.6 44.597-2.032 0-3.682 1.65-3.682 3.683s1.65 3.684 3.683 3.684c28.654 0 51.966-23.31 51.966-51.963 0-25.503-18.47-46.756-42.73-51.128z"/></symbol><symbol viewBox="18.89 125.187 300 300" enable-background="new 18.89 125.187 300 300" id="arrow_3"><path d="M203.902 266.557c-.003-.93-.374-1.82-1.033-2.475l-10.663-10.612c-1.37-1.365-3.588-1.36-4.953.012-.68.682-1.02 1.577-1.02 2.47 0 .9.344 1.798 1.032 2.483l4.673 4.65h-67.87c-1.933 0-3.502 1.57-3.502 3.506 0 1.936 1.57 3.503 3.502 3.503h67.875l-4.642 4.663c-1.364 1.373-1.36 3.59.012 4.956 1.37 1.362 3.588 1.358 4.953-.013l10.48-10.53c.545-.496.938-1.155 1.084-1.91.046-.227.07-.46.07-.695v-.008z"/></symbol><symbol viewBox="18.89 125.187 300 300" enable-background="new 18.89 125.187 300 300" id="arrow_4"><path d="M230.18 287.504l-11.214-11.16c-1.44-1.437-3.773-1.43-5.21.01-.714.718-1.07 1.66-1.07 2.6 0 .944.36 1.89 1.084 2.61l4.916 4.893h-95.522v-68.672c0-2.034-1.65-3.683-3.683-3.683s-3.682 1.65-3.682 3.683v76.038h102.895l-4.884 4.906c-1.436 1.44-1.432 3.775.012 5.207 1.44 1.438 3.773 1.43 5.208-.01l11.162-11.215c1.435-1.442 1.432-3.773-.012-5.208z"/></symbol><symbol viewBox="18.89 125.187 300 300" enable-background="new 18.89 125.187 300 300" id="arrow_5"><path d="M262.38 269.68c-.002-.975-.392-1.91-1.085-2.6l-11.214-11.162c-1.44-1.436-3.774-1.43-5.208.013-.715.72-1.073 1.66-1.073 2.6 0 .944.36 1.89 1.085 2.61l4.915 4.892H80.008c-2.036 0-3.684 1.65-3.684 3.685 0 2.033 1.648 3.683 3.684 3.683h169.798l-4.883 4.904c-1.434 1.444-1.43 3.775.013 5.21 1.44 1.436 3.773 1.43 5.208-.01l11.025-11.077c.57-.523.982-1.215 1.135-2.006.048-.238.074-.482.074-.73v-.01z"/></symbol><symbol viewBox="18.89 125.187 300 300" enable-background="new 18.89 125.187 300 300" id="arrow_6"><path d="M266.96 278.21l-6.315-14.508c-.812-1.867-2.982-2.72-4.847-1.908-1.864.81-2.722 2.982-1.908 4.847l2.65 6.09c-1.416-.96-2.658-2.54-4.24-4.68-2.876-3.888-6.455-8.73-13.66-8.73-7.206 0-10.785 4.842-13.66 8.732-2.71 3.667-4.407 5.74-7.735 5.74-2.637 0-5.482-9.14-7.18-14.605-3.028-9.725-6.156-19.782-14.217-19.782-8.302 0-11.08 12.45-14.292 26.866-1.462 6.548-4.5 20.167-7.105 21.103-3.163 0-8.687-10.13-11.992-16.18-5.616-10.296-10.92-20.02-18.456-20.02-8.38 0-10.712 11.864-13.408 25.6-1.178 5.986-3.598 18.31-6.026 19.587-3.034-2.36-6.51-18.787-8.61-28.693-4.68-22.098-7.714-34.6-15.662-34.6-7.442 0-13.564 10.27-20.654 22.16-3.866 6.49-11.07 18.566-14.324 18.566-2.035 0-3.685 1.648-3.685 3.684 0 2.034 1.65 3.685 3.685 3.685 7.44 0 13.563-10.27 20.65-22.162 3.786-6.346 10.757-18.04 14.11-18.548 3.047 2.17 6.56 18.763 8.673 28.742 4.68 22.096 7.715 34.598 15.663 34.598 8.38 0 10.71-11.863 13.408-25.6 1.203-6.112 3.702-18.833 6.182-19.652 3.162 0 8.69 10.13 11.99 16.18 5.618 10.294 10.924 20.02 18.46 20.02 8.3 0 11.078-12.45 14.293-26.865 1.46-6.546 4.498-20.168 7.103-21.103 2.64 0 5.48 9.143 7.18 14.604 3.027 9.727 6.155 19.786 14.217 19.786 7.206 0 10.785-4.842 13.66-8.732 2.71-3.667 4.407-5.742 7.735-5.742 3.33 0 5.024 2.074 7.736 5.742 1.937 2.62 4.198 5.67 7.67 7.382l-6.44 2.803c-1.387.604-2.216 1.958-2.216 3.38 0 .49.1.99.308 1.468.812 1.866 2.98 2.72 4.847 1.907l14.51-6.314c.895-.39 1.6-1.12 1.956-2.03.36-.91.342-1.924-.05-2.816z"/></symbol><symbol viewBox="18.89 125.187 300 300" enable-background="new 18.89 125.187 300 300" id="arrow_7"><path d="M212.14 271.507l-3.516-15.428c-.452-1.984-2.427-3.225-4.41-2.773-1.982.453-3.225 2.426-2.773 4.412l1.016 4.448c-.21-.37-.43-.76-.657-1.17-2.14-3.855-5.067-9.135-11.25-9.135-6.357 0-9.133 5.945-11.36 10.72-1.418 3.032-3.022 6.47-4.66 6.473-1.914-.394-5.654-8.19-7.452-11.94C163.1 248.83 159.345 241 153.012 241c-7.04 0-9.072 10.3-11.64 23.334-1.122 5.696-2.96 15.018-4.763 17.26-2.363-1.158-6.967-8.8-9.506-13.016-5.4-8.97-10.065-16.715-16.16-16.715-2.035 0-3.708 1.65-3.708 3.68 0 2.037 1.63 3.685 3.66 3.685 2.21.385 7.21 8.69 9.9 13.152 5.4 8.968 10.066 16.714 16.16 16.714 7.044 0 9.073-10.298 11.642-23.334 1.12-5.68 2.95-14.976 4.75-17.245 1.993 1.173 5.4 8.27 7.086 11.788 3.978 8.288 7.734 16.116 14.066 16.116 6.357 0 9.133-5.945 11.363-10.72 1.415-3.033 3.022-6.47 4.688-6.47 1.72 0 2.962 2.017 4.806 5.34 1.075 1.94 2.35 4.236 4.137 6.042l-7.19 1.638c-1.706.39-2.863 1.907-2.863 3.59 0 .272.03.546.093.822.453 1.984 2.427 3.224 4.41 2.772l15.427-3.517c1.98-.452 3.223-2.426 2.77-4.41z"/></symbol><symbol viewBox="18.89 125.187 300 300" enable-background="new 18.89 125.187 300 300" id="arrow_8"><path d="M220.856 142.33c-32.61 0-63.005 27.457-85.582 77.31-21.765 48.065-33.92 111.663-34.34 179.438l-4.73-5.397c-1.34-1.53-3.667-1.683-5.197-.342-.832.727-1.257 1.748-1.257 2.773 0 .86.302 1.727.915 2.426l10.427 11.898c.643.736 1.554 1.186 2.525 1.25.978.064 1.938-.262 2.673-.907l11.898-10.428c1.532-1.342 1.68-3.67.342-5.2-1.342-1.53-3.67-1.682-5.2-.34l-5.03 4.407c.405-66.797 12.324-129.372 33.684-176.537 21.314-47.064 49.324-72.983 78.872-72.983 2.034 0 3.682-1.65 3.682-3.684 0-2.034-1.648-3.682-3.682-3.682z"/></symbol><symbol viewBox="18.89 125.187 300 300" enable-background="new 18.89 125.187 300 300" id="arrow_9"><path d="M186.11 247.423c-1.25-1.607-3.563-1.896-5.17-.647l-33.894 26.357.525-6.816c.17-2.028-1.36-3.8-3.39-3.956-2.027-.155-3.797 1.364-3.954 3.39l-1.215 15.776c-.008.095-.01.19-.01.283 0 .874.312 1.726.887 2.396.635.742 1.54 1.2 2.513 1.277l15.776 1.214c2.028.155 3.8-1.364 3.954-3.39.174-2.033-1.36-3.8-3.39-3.955l-6.998-.54 33.72-26.22c1.61-1.25 1.898-3.564.648-5.17z"/></symbol><symbol viewBox="18.89 125.187 300 300" enable-background="new 18.89 125.187 300 300" id="logo"><g><path fill="#fff" d="M59.786 128.545H162.77V231.53H59.785zM23.248 150.237V253.22l36.537-21.69V128.544z"/><path d="M23.248 256.577c-.573 0-1.146-.146-1.662-.44-1.048-.597-1.696-1.712-1.696-2.918V150.236c0-1.185.624-2.282 1.643-2.887l36.538-21.692c1.037-.615 2.327-.628 3.377-.03 1.05.596 1.696 1.71 1.696 2.918V231.53c0 1.184-.624 2.28-1.643 2.887l-36.537 21.69c-.53.313-1.122.47-1.715.47zm3.358-104.43v95.172l29.82-17.704v-95.172l-29.82 17.704zM166.006 230.64c-.4-1.46-1.726-2.47-3.238-2.47H59.785c-.603 0-1.195.162-1.714.47l-36.536 21.69c-1.3.774-1.924 2.32-1.524 3.778.4 1.458 1.726 2.47 3.238 2.47H126.23c.604 0 1.196-.163 1.715-.47l36.537-21.692c1.3-.773 1.924-2.318 1.524-3.777z"/><path fill="#fff" d="M153.067 258.684l9.702-27.155-36.54 21.69-9.7 27.156z"/><path d="M82.464 163.143h-5.78v-18.736h-5.32v-4.988h16.423v4.987h-5.323zM108.196 139.42v23.723h-5.778v-9.61h-5.78v9.61H90.86V139.42h5.78v9.124h5.778v-9.125zM112.485 139.42h5.78v23.723h-5.78zM122.098 146.628v-.334c0-4.41 2.95-7.3 8.668-7.3 5.992 0 8.668 2.556 8.668 8.305v.637h-5.777c0-2.677-.76-3.954-2.89-3.954h-.303c-1.673 0-2.495.943-2.495 2.16v.12c0 1.46.485 2.19 3.68 2.618 5.17.7 7.938 2.342 7.938 6.995v.336c0 4.653-3.01 7.36-8.82 7.36-5.78 0-8.82-2.403-8.82-8.364v-.274h5.778c0 2.617.913 3.65 2.888 3.65h.305c1.976 0 2.795-1.064 2.795-2.22v-.12c0-1.37-.638-2.192-3.832-2.618-5.17-.7-7.785-2.342-7.785-6.996"/><path d="M82.404 192.112h-7.36l-3.772-23.723h6.022l1.825 15.753 2.675-15.754h7.117l2.678 15.753 1.824-15.754h6.022l-3.772 23.722h-7.328l-2.982-17.092zM108.655 182.327l2.922-.02-1.51-7.228-1.412 7.247zm5.316-13.967l5.826 23.68-6.174.046-1.008-4.8-4.925.037-.91 4.812-6.206.045 5.488-23.763 7.91-.057zM133.432 192.11h-5.78v-7.298l-6.72-16.424h6.325l3.286 9.307 3.284-9.307h6.327l-6.722 16.424zM72.275 213.11v-16.18h5.78v16.028c0 1.885.515 3.132 3.04 3.132s3.04-1.247 3.04-3.132v-16.03h5.78v16.18c0 4.99-1.945 7.97-8.82 7.97-6.873 0-8.82-2.98-8.82-7.968"/><path d="M102.327 207.94c1.124 0 2.465-.425 2.465-2.676v-.243c0-2.25-1.34-2.677-2.465-2.677H99.68v5.597h2.647zm-2.646 13.14h-5.778v-23.723h8.18c4.016 0 8.547.913 8.547 7.48v.61c0 6.57-4.532 7.482-8.547 7.482H99.68v8.15z"/><path fill="#fff" d="M112.17 249.833l-52.385-18.305-36.537 21.69 52.385 18.305z"/><path d="M166.127 128.545c0-1.855-1.503-3.358-3.358-3.358H59.785c-1.855 0-3.358 1.503-3.358 3.358v101.07L21.534 250.33c-1.122.668-1.757 1.924-1.627 3.223.13 1.3 1 2.406 2.234 2.836l52.386 18.304c.36.126.734.188 1.107.188.596 0 1.19-.158 1.714-.47l36.536-21.69c1.123-.668 1.757-1.924 1.628-3.223-.13-1.3-1-2.407-2.233-2.837l-33.702-11.778h70.958l-26.017 15.445c-.673.4-1.185 1.022-1.448 1.76l-9.7 27.156c-.477 1.332-.067 2.82 1.026 3.72.616.508 1.374.768 2.135.768.59 0 1.182-.155 1.713-.47l36.537-21.692c.673-.4 1.185-1.022 1.448-1.76l9.702-27.155c.04-.11.064-.224.092-.337.012-.048.03-.093.038-.142.04-.202.058-.404.06-.607 0-.014.005-.028.005-.043V128.545h.002zm-102.983 3.358h96.267v96.267H63.145v-96.267zm12.12 135.935l-44.103-15.412 28.994-17.213 44.103 15.413-28.992 17.212zm75.048-11.423l-27.486 16.318 6.16-17.244 27.486-16.318-6.16 17.243z"/></g></symbol><symbol viewBox="-41.11 65.187 360 360" enable-background="new -41.11 65.187 360 360" id="logo-box"><path fill="#231F20" d="M25.54 178.678H4.46v-68.354h-19.42V92.122h59.92v18.202H25.54zM119.42 92.123v86.556H98.336v-35.065H77.253v35.064h-21.08V92.122h21.08v33.29h21.083v-33.29zM135.07 92.123h21.082v86.556H135.07zM170.14 118.424v-1.222c0-16.088 10.762-26.633 31.624-26.633 21.86 0 31.622 9.32 31.622 30.295v2.33h-21.08c0-9.763-2.775-14.424-10.542-14.424h-1.11c-6.105 0-9.1 3.437-9.1 7.877v.446c0 5.325 1.776 7.988 13.425 9.54 18.865 2.555 28.964 8.547 28.964 25.524v1.22c0 16.98-10.987 26.853-32.18 26.853-21.086 0-32.18-8.764-32.18-30.515v-1h21.083c0 9.543 3.33 13.32 10.54 13.32h1.112c7.21 0 10.207-3.89 10.207-8.104v-.442c0-4.992-2.33-7.988-13.98-9.544-18.865-2.553-28.408-8.543-28.408-25.52"/><path fill="#231F20" d="M36.082 222.003l-10.875 62.36H-1.535l-13.76-86.552H6.678l6.657 57.483L23.1 197.81h25.965l9.762 57.483 6.66-57.482H87.46L73.7 284.365H46.845zM116.94 248.632h10.654l-5.325-26.41-5.33 26.41zm19.752-50.82l20.64 86.555h-22.527l-3.55-17.532H113.28l-3.442 17.532H87.205l20.637-86.556h28.85zM194.357 284.365h-21.083v-26.63L148.75 197.81h23.08l11.985 33.96 11.982-33.96h23.082l-24.523 59.925zM-11.633 362.53v-59.033H9.45v58.48c0 6.88 1.886 11.43 11.097 11.43 9.21 0 11.097-4.55 11.097-11.43v-58.48h21.083v59.034c0 18.2-7.103 29.075-32.18 29.075s-32.18-10.875-32.18-29.074"/><path fill="#231F20" d="M98.005 342.115c4.106 0 8.99-1.553 8.99-9.768v-.883c0-8.216-4.884-9.768-8.99-9.768h-9.653v20.42h9.653zm-9.653 47.935H67.268v-86.553h29.85c14.646 0 31.183 3.33 31.183 27.3v2.22c0 23.964-16.536 27.294-31.18 27.294H88.35v29.74z"/></symbol><symbol viewBox="18.89 125.187 300 300" enable-background="new 18.89 125.187 300 300" id="logo-center"><g><path fill="#fff" d="M129.935 196.597h102.983V299.58H129.935zM93.397 218.29v102.98l36.537-21.688V196.598z"/><path d="M93.397 324.63c-.573 0-1.146-.146-1.662-.44-1.048-.597-1.696-1.712-1.696-2.918V218.29c0-1.185.623-2.282 1.642-2.887l36.538-21.692c1.036-.614 2.326-.627 3.376-.03 1.05.597 1.696 1.71 1.696 2.92V299.58c0 1.185-.624 2.282-1.643 2.888L95.11 324.16c-.53.313-1.122.47-1.715.47zm3.358-104.43v95.172l29.82-17.703v-95.173L96.756 220.2zM236.155 298.69c-.4-1.457-1.726-2.468-3.238-2.468H129.934c-.603 0-1.195.162-1.714.47l-36.537 21.69c-1.3.774-1.924 2.32-1.524 3.778.4 1.458 1.725 2.47 3.237 2.47H196.38c.603 0 1.195-.163 1.714-.47l36.537-21.692c1.302-.773 1.925-2.317 1.525-3.777z"/><path fill="#fff" d="M223.216 326.737l9.702-27.155-36.54 21.69-9.7 27.156z"/><path d="M152.613 231.195h-5.78V212.46h-5.32v-4.99h16.423v4.99h-5.323zM178.345 207.47v23.725h-5.778v-9.61h-5.78v9.61h-5.778V207.47h5.778v9.126h5.78v-9.125zM182.634 207.47h5.78v23.725h-5.78zM192.247 214.68v-.334c0-4.41 2.95-7.3 8.668-7.3 5.992 0 8.668 2.556 8.668 8.305v.64h-5.777c0-2.678-.76-3.955-2.89-3.955h-.303c-1.673 0-2.495.943-2.495 2.16v.12c0 1.46.486 2.19 3.68 2.618 5.172.7 7.94 2.34 7.94 6.994v.336c0 4.652-3.012 7.36-8.822 7.36-5.78 0-8.82-2.404-8.82-8.365v-.274h5.78c0 2.617.912 3.65 2.887 3.65h.305c1.977 0 2.796-1.064 2.796-2.22v-.12c0-1.37-.638-2.192-3.832-2.618-5.17-.698-7.785-2.34-7.785-6.996"/><path d="M152.553 260.164h-7.36l-3.772-23.723h6.023l1.825 15.755 2.676-15.754h7.117l2.68 15.755 1.823-15.754h6.022l-3.772 23.724h-7.328l-2.982-17.09zM178.804 250.38l2.922-.02-1.51-7.228-1.412 7.248zm5.316-13.967l5.825 23.68-6.174.046-1.007-4.8-4.925.036-.91 4.812-6.205.045 5.488-23.763 7.91-.057zM203.58 260.164h-5.78v-7.3l-6.72-16.423h6.326l3.286 9.307 3.284-9.306h6.327l-6.722 16.425zM142.424 281.163v-16.18h5.78v16.028c0 1.886.515 3.133 3.04 3.133 2.523 0 3.04-1.247 3.04-3.132v-16.028h5.78v16.18c0 4.988-1.945 7.97-8.82 7.97-6.873 0-8.82-2.98-8.82-7.97"/><path d="M172.476 275.993c1.124 0 2.465-.426 2.465-2.677v-.243c0-2.25-1.34-2.678-2.464-2.678h-2.646v5.597h2.646zm-2.646 13.14h-5.78V265.41h8.182c4.015 0 8.546.913 8.546 7.48v.61c0 6.57-4.53 7.482-8.546 7.482h-2.402v8.15z"/><path fill="#fff" d="M182.32 317.885l-52.386-18.304-36.537 21.69 52.385 18.306z"/><path d="M236.276 196.598c0-1.855-1.503-3.358-3.358-3.358H129.935c-1.855 0-3.358 1.503-3.358 3.358v101.07l-34.894 20.716c-1.122.667-1.757 1.923-1.627 3.222.13 1.3 1 2.406 2.234 2.836l52.385 18.305c.36.126.734.188 1.107.188.596 0 1.19-.158 1.714-.47l36.536-21.69c1.123-.668 1.757-1.924 1.628-3.223-.13-1.3-1-2.406-2.234-2.836l-33.702-11.778h70.958l-26.017 15.445c-.673.4-1.185 1.022-1.448 1.76l-9.7 27.156c-.477 1.33-.067 2.82 1.026 3.72.616.507 1.374.767 2.135.767.59 0 1.183-.155 1.714-.47l36.537-21.692c.672-.4 1.184-1.022 1.447-1.76l9.702-27.155c.04-.11.063-.224.09-.337.013-.048.03-.093.04-.142.04-.2.057-.403.06-.606 0-.015.004-.03.004-.044V196.598h.002zm-102.983 3.358h96.267v96.267h-96.267v-96.267zm12.12 135.935l-44.103-15.41 28.993-17.214 44.103 15.413-28.992 17.21zm75.048-11.423l-27.485 16.318 6.16-17.244 27.486-16.316-6.16 17.243z"/></g></symbol></svg>