<?xml version="1.0" encoding="utf-8"?>
<!-- Generator: Adobe Illustrator 16.0.0, SVG Export Plug-In . SVG Version: 6.00 Build 0)  -->
<!DOCTYPE svg PUBLIC "-//W3C//DTD SVG 1.1//EN" "http://www.w3.org/Graphics/SVG/1.1/DTD/svg11.dtd">
<svg version="1.1" id="Layer_1" xmlns="http://www.w3.org/2000/svg" xmlns:xlink="http://www.w3.org/1999/xlink" x="0px" y="0px"
	 width="595.281px" height="841.891px" viewBox="0 0 595.281 841.891" enable-background="new 0 0 595.281 841.891"
	 xml:space="preserve">
<g>
	<g>
		<path fill="#CC3300" d="M265.588,764.967c-12.82-9.972-19.943-24.217-19.943-41.312l1.425-670.948
			C247.07,22.793,271.287,0,299.777,0s52.707,24.217,52.707,52.707l-1.424,670.948c0,28.491-24.217,52.708-52.707,52.708
			C285.532,774.938,274.136,772.089,265.588,764.967z"/>
	</g>
	<g>
		<path fill="#CC3300" d="M272.711,830.494c-1.424-1.424-1.424-1.424-2.849-2.849L103.193,675.221
			c-21.368-19.943-22.792-52.707-2.849-74.074c19.943-21.368,52.708-22.793,74.075-2.85l128.207,116.811l116.811-128.206
			c19.943-21.368,52.707-22.793,74.074-2.85s22.793,52.707,2.85,74.075L343.937,824.797c-9.973,9.971-22.793,17.094-37.037,17.094
			C295.503,841.89,282.683,837.617,272.711,830.494z"/>
	</g>
</g>
</svg>
