<svg xmlns="http://www.w3.org/2000/svg" width="318.89" height="425.187" viewBox="0 0 318.89 425.187"><path fill="#FFF" d="M40.896 4.358H143.88v102.984H40.895zM4.358 26.05v102.982l36.537-21.69V4.358"/><path d="M4.358 132.39c-.573 0-1.146-.146-1.662-.44C1.648 131.353 1 130.238 1 129.032V26.05c0-1.185.624-2.282 1.643-2.887L39.18 1.47c1.037-.614 2.327-.627 3.377-.03 1.05.597 1.696 1.71 1.696 2.92V107.34c0 1.185-.624 2.282-1.643 2.888L6.073 131.92c-.53.313-1.122.47-1.715.47zM7.716 27.96v95.172l29.82-17.703V10.256L7.717 27.96z"/><path d="M147.116 106.452c-.4-1.458-1.726-2.47-3.238-2.47H40.895c-.603 0-1.195.163-1.714.47L2.645 126.145c-1.3.773-1.924 2.318-1.524 3.777.4 1.46 1.726 2.47 3.238 2.47H107.34c.604 0 1.196-.162 1.715-.47l36.537-21.69c1.3-.774 1.924-2.32 1.524-3.778z"/><path fill="#FFF" d="M134.177 134.497l9.702-27.155-36.54 21.69-9.7 27.157"/><path d="M63.574 38.956h-5.78V20.22h-5.32v-4.988h16.423v4.988h-5.323M89.306 15.232v23.724h-5.778v-9.61h-5.78v9.61H71.97V15.232h5.78v9.125h5.778v-9.125M93.595 15.232h5.78v23.724h-5.78zM103.208 22.44v-.333c0-4.41 2.95-7.3 8.668-7.3 5.992 0 8.668 2.556 8.668 8.305v.638h-5.777c0-2.677-.76-3.954-2.89-3.954h-.303c-1.673 0-2.495.943-2.495 2.16v.12c0 1.46.485 2.19 3.68 2.618 5.17.7 7.938 2.34 7.938 6.994v.336c0 4.652-3.01 7.36-8.82 7.36-5.78 0-8.82-2.404-8.82-8.365v-.275h5.778c0 2.617.913 3.65 2.888 3.65h.305c1.976 0 2.795-1.064 2.795-2.22v-.12c0-1.37-.638-2.192-3.832-2.618-5.17-.7-7.785-2.342-7.785-6.996M63.514 67.925h-7.36l-3.772-23.723h6.022l1.825 15.754 2.675-15.754h7.117L72.7 59.956l1.824-15.754h6.022l-3.772 23.723h-7.328l-2.982-17.092M89.765 58.14l2.922-.02-1.51-7.228-1.412 7.248zm5.316-13.967l5.826 23.68-6.174.046-1.008-4.8-4.925.036-.91 4.812-6.206.045 5.488-23.763 7.91-.057zM114.542 67.924h-5.78v-7.3l-6.72-16.423h6.325l3.286 9.308 3.284-9.307h6.327l-6.722 16.425M53.385 88.923v-16.18h5.78V88.77c0 1.886.515 3.133 3.04 3.133s3.04-1.247 3.04-3.132V72.743h5.78v16.18c0 4.988-1.945 7.97-8.82 7.97-6.873 0-8.82-2.98-8.82-7.97M83.437 83.754c1.124 0 2.465-.426 2.465-2.677v-.243c0-2.25-1.34-2.678-2.465-2.678H80.79v5.597h2.647zM80.79 96.892h-5.778V73.17h8.18c4.016 0 8.547.913 8.547 7.48v.61c0 6.57-4.532 7.482-8.547 7.482H80.79v8.15z"/><path fill="#FFF" d="M93.28 125.646L40.895 107.34 4.358 129.033l52.385 18.304"/><path d="M147.237 4.358c0-1.855-1.503-3.358-3.358-3.358H40.895c-1.855 0-3.358 1.503-3.358 3.358v101.07L2.644 126.143c-1.122.667-1.757 1.923-1.627 3.222.13 1.3 1 2.406 2.234 2.836l52.386 18.305c.36.126.734.188 1.107.188.596 0 1.19-.158 1.714-.47l36.536-21.69c1.123-.668 1.757-1.924 1.628-3.223-.13-1.3-1-2.406-2.233-2.836l-33.702-11.778h70.958l-26.017 15.445c-.673.4-1.185 1.022-1.448 1.76l-9.7 27.156c-.477 1.33-.067 2.82 1.026 3.72.616.507 1.374.767 2.135.767.59 0 1.182-.155 1.713-.47l36.537-21.692c.673-.4 1.185-1.022 1.448-1.76l9.702-27.155c.04-.11.064-.224.092-.337.012-.048.03-.093.038-.142.04-.2.058-.403.06-.606 0-.015.005-.03.005-.044V4.358zM44.254 7.716h96.267v96.267H44.255V7.716zm12.12 135.935l-44.103-15.41 28.994-17.214 44.103 15.413-28.992 17.21zm75.048-11.422l-27.486 16.318 6.16-17.244 27.486-16.317-6.16 17.243z"/></svg>